<?xml version="1.0" encoding="utf-8"?>
<!-- Generator: Adobe Illustrator 21.1.0, SVG Export Plug-In . SVG Version: 6.00 Build 0)  -->
<svg version="1.1" id="Layer_1" xmlns="http://www.w3.org/2000/svg" xmlns:xlink="http://www.w3.org/1999/xlink" x="0px" y="0px"
	 viewBox="0 0 218.2 44.2" style="enable-background:new 0 0 218.2 44.2;" xml:space="preserve">
<style type="text/css">
	.st0{fill:#FAFAFA;}
	.st1{fill:#E2E2E2;}
	.st2{fill:none;stroke:#FF7900;stroke-width:3;stroke-miterlimit:10;}
	.st3{fill:#891280;}
	.st4{fill:#FFA100;}
	.st5{fill:#C90061;}
	.st6{fill:#FF6100;}
	.st7{fill:#FF1E00;}
	.st8{fill:#FF8000;}
	.st9{fill:#FF4100;}
	.st10{fill:#FF7900;}
	.st11{fill:#DB0033;}
	.st12{fill:#A90080;}
	.st13{fill:#FF9200;}
	.st14{fill:#FFA101;}
	.st15{fill:#C80061;}
	.st16{fill:#FF3E00;}
	.st17{fill:#FFFFFF;}
	.st18{fill:#F2E4F0;stroke:#800080;stroke-width:0.75;stroke-miterlimit:10;}
	.st19{fill:#FFFFFF;stroke:#800080;stroke-width:0.75;stroke-miterlimit:10;}
	.st20{fill:#F2E4F0;}
	.st21{fill:none;stroke:#FF4100;stroke-width:0.75;stroke-miterlimit:10;}
	.st22{fill:#FFFFFF;stroke:#FF4100;stroke-width:0.75;stroke-miterlimit:10;}
	.st23{fill:#FFFFFF;stroke:#C1A2DF;stroke-width:0.75;stroke-linecap:round;stroke-miterlimit:10;}
	.st24{fill:none;stroke:#800080;stroke-width:0.75;stroke-miterlimit:10;}
	.st25{fill:none;stroke:#800080;stroke-width:0.75;stroke-linecap:round;stroke-miterlimit:10;}
	.st26{fill:none;stroke:#FF4100;stroke-width:0.75;stroke-linecap:round;stroke-miterlimit:10;}
	.st27{fill:#F2E4F0;stroke:#A900A9;stroke-width:0.75;stroke-miterlimit:10;}
	.st28{fill:#FFFFFF;stroke:#A900A9;stroke-width:0.75;stroke-miterlimit:10;}
	.st29{fill:none;stroke:#FFFFFF;stroke-width:0.75;stroke-linecap:round;stroke-miterlimit:10;}
	.st30{fill:none;stroke:#800080;stroke-width:0.6754;stroke-linecap:round;stroke-miterlimit:10;}
	.st31{fill:#FFFFFF;stroke:#FF4100;stroke-width:0.6754;stroke-linecap:round;stroke-miterlimit:10;}
	.st32{fill:#FFFFFF;stroke:#000000;stroke-width:0.75;stroke-linecap:round;stroke-miterlimit:10;}
	.st33{fill:#FFFFFF;stroke:#000000;stroke-width:0.75;stroke-miterlimit:10;}
	.st34{fill:none;stroke:#000000;stroke-width:0.75;stroke-linecap:round;stroke-miterlimit:10;}
	.st35{fill:none;stroke:#000000;stroke-width:0.75;stroke-linecap:round;stroke-miterlimit:10;stroke-dasharray:12.7016,12.7016;}
	.st36{fill:none;stroke:#000000;stroke-width:0.75;stroke-linecap:round;stroke-miterlimit:10;stroke-dasharray:8.1608,8.1608;}
	.st37{fill:#FFFFFF;stroke:#C1A2DF;stroke-width:0.7377;stroke-linecap:round;stroke-miterlimit:10;}
	.st38{fill:#F2E4F0;stroke:#FF4100;stroke-width:0.6683;stroke-linecap:round;stroke-miterlimit:10;}
	.st39{fill:#FFFFFF;stroke:#800080;stroke-width:0.6683;stroke-miterlimit:10;}
	.st40{fill:#F2E4F0;stroke:#FF4100;stroke-width:0.6683;stroke-miterlimit:10;}
	.st41{fill:none;stroke:#800080;stroke-width:0.6683;stroke-linecap:round;stroke-miterlimit:10;}
	.st42{fill:none;stroke:#800080;stroke-width:0.6683;stroke-linecap:round;stroke-miterlimit:10;stroke-dasharray:12.7016,12.7016;}
	.st43{fill:none;stroke:#800080;stroke-width:0.6683;stroke-linecap:round;stroke-miterlimit:10;stroke-dasharray:8.1608,8.1608;}
	.st44{fill:#F2E4F0;stroke:#800080;stroke-width:0.6683;stroke-miterlimit:10;}
	.st45{fill:#800080;}
	.st46{fill:none;stroke:#800080;stroke-width:0.5684;stroke-miterlimit:10;}
	.st47{fill:none;stroke:#800080;stroke-width:0.6116;stroke-linecap:round;stroke-miterlimit:10;}
	.st48{fill:#FFFFFF;stroke:#FF4100;stroke-width:0.75;stroke-linecap:round;stroke-miterlimit:10;}
	.st49{fill:none;stroke:#C1A2DF;stroke-width:0.75;stroke-linecap:round;stroke-miterlimit:10;}
	.st50{fill:none;stroke:#800080;stroke-width:1.3026;stroke-linecap:round;stroke-miterlimit:10;}
	.st51{fill:#FFFFFF;stroke:#FF7900;stroke-width:0.75;stroke-miterlimit:10;}
	.st52{fill:none;stroke:#FF7900;stroke-width:0.75;stroke-miterlimit:10;}
	.st53{fill:none;stroke:#FF7900;stroke-width:0.75;stroke-linecap:round;stroke-miterlimit:10;}
</style>
<g>
	<path d="M86.9,13.8h8c1.9,0,3.6,0.4,5,1.1c1.5,0.7,2.6,1.7,3.4,3.1c0.8,1.3,1.2,2.8,1.2,4.6s-0.4,3.3-1.2,4.6
		c-0.8,1.3-1.9,2.3-3.4,3.1c-1.5,0.7-3.1,1.1-5,1.1h-8V13.8z M94.7,28c1.8,0,3.1-0.5,4.2-1.5c1-1,1.6-2.3,1.6-4c0-1.7-0.5-3-1.6-4
		c-1-1-2.4-1.5-4.2-1.5H91V28H94.7z"/>
	<path d="M119.5,31.3l-3.4-4.9h-0.2h-3.5v4.9h-4V13.8h7.6c1.6,0,2.9,0.3,4,0.8s2,1.3,2.6,2.2c0.6,0.9,0.9,2.1,0.9,3.4
		c0,1.3-0.3,2.4-0.9,3.4s-1.5,1.7-2.7,2.2l3.9,5.6H119.5z M118.4,17.9c-0.6-0.5-1.6-0.8-2.8-0.8h-3.3v6.1h3.3c1.2,0,2.1-0.3,2.8-0.8
		c0.6-0.5,0.9-1.3,0.9-2.3C119.4,19.2,119.1,18.4,118.4,17.9z"/>
	<path d="M141,28v3.3h-13.5V13.8h13.2V17h-9.2v3.8h8.1V24h-8.1v4H141z"/>
	<path d="M156.5,27.5h-8.1l-1.5,3.8h-4.2l7.8-17.5h4l7.8,17.5H158L156.5,27.5z M155.2,24.5l-2.8-6.7l-2.8,6.7H155.2z"/>
	<path d="M180.8,31.3l0-10.5l-5.2,8.7h-1.8l-5.1-8.4v10.3h-3.8V13.8h3.3l6.6,10.9l6.4-10.9h3.3l0,17.5H180.8z"/>
	<path d="M189.5,13.8h4v17.5h-4V13.8z"/>
	<path d="M209.5,31.3l-4.2-6.1l-4.1,6.1h-4.7l6.5-8.9l-6.1-8.6h4.6l4,5.7l4-5.7h4.4l-6.1,8.5l6.5,9H209.5z"/>
</g>
<g>
	<polygon class="st3" points="13.9,22.1 13.9,28.9 8.1,25.5 2.2,22.1 8.1,18.7 13.9,15.3 	"/>
	<polygon class="st4" points="13.9,8.5 13.9,15.3 8.1,11.9 2.2,8.5 8.1,5.1 13.9,1.7 	"/>
	<polygon class="st5" points="13.9,35.7 13.9,42.5 8.1,39.1 2.2,35.7 8.1,32.3 13.9,28.9 	"/>
	<polygon class="st6" points="37.4,22.1 37.4,28.9 31.6,25.5 25.7,22.1 31.6,18.7 37.4,15.3 	"/>
	<polygon class="st7" points="25.7,28.9 25.7,35.7 19.8,32.3 13.9,28.9 19.8,25.5 25.7,22.1 	"/>
	<polygon class="st8" points="25.7,15.3 25.7,22.1 19.8,18.7 13.9,15.3 19.8,11.9 25.7,8.5 	"/>
	<polygon class="st9" points="25.7,28.9 25.7,35.7 31.6,32.3 37.4,28.9 31.6,25.5 25.7,22.1 	"/>
	<polygon class="st10" points="25.7,15.3 25.7,22.1 31.6,18.7 37.4,15.3 31.6,11.9 25.7,8.5 	"/>
	<polygon class="st11" points="13.9,35.7 13.9,42.5 19.8,39.1 25.7,35.7 19.8,32.3 13.9,28.9 	"/>
	<polygon class="st12" points="2.2,28.9 2.2,35.7 8.1,32.3 13.9,28.9 8.1,25.5 2.2,22.1 	"/>
	<polygon class="st13" points="13.9,8.5 13.9,15.3 19.8,11.9 25.7,8.5 19.8,5.1 13.9,1.7 	"/>
	<polygon class="st14" points="62.1,8.5 62.1,15.3 68,11.9 73.8,8.5 68,5.1 62.1,1.7 	"/>
	<polygon class="st15" points="62.1,35.7 62.1,42.5 68,39.1 73.8,35.7 68,32.3 62.1,28.9 	"/>
	<polygon class="st6" points="38.6,22.1 38.6,28.9 44.5,25.5 50.3,22.1 44.5,18.7 38.6,15.3 	"/>
	<polygon class="st7" points="50.3,28.9 50.3,35.7 56.2,32.3 62.1,28.9 56.2,25.5 50.3,22.1 	"/>
	<polygon class="st8" points="50.3,15.3 50.3,22.1 56.2,18.7 62.1,15.3 56.2,11.9 50.3,8.5 	"/>
	<polygon class="st16" points="50.3,28.9 50.3,35.7 44.5,32.3 38.6,28.9 44.5,25.5 50.3,22.1 	"/>
	<polygon class="st10" points="50.3,15.3 50.3,22.1 44.5,18.7 38.6,15.3 44.5,11.9 50.3,8.5 	"/>
	<polygon class="st10" points="73.8,15.3 73.8,22.1 68,18.7 62.1,15.3 68,11.9 73.8,8.5 	"/>
	<polygon class="st11" points="62.1,35.7 62.1,42.5 56.2,39.1 50.3,35.7 56.2,32.3 62.1,28.9 	"/>
	<polygon class="st13" points="62.1,8.5 62.1,15.3 56.2,11.9 50.3,8.5 56.2,5.1 62.1,1.7 	"/>
</g>
</svg>
